<?xml version="1.0" encoding="UTF-8" standalone="no"?>
<!-- Created with Inkscape (http://www.inkscape.org/) -->

<svg
   xmlns:dc="http://purl.org/dc/elements/1.1/"
   xmlns:cc="http://creativecommons.org/ns#"
   xmlns:rdf="http://www.w3.org/1999/02/22-rdf-syntax-ns#"
   xmlns:svg="http://www.w3.org/2000/svg"
   xmlns="http://www.w3.org/2000/svg"
   xmlns:sodipodi="http://sodipodi.sourceforge.net/DTD/sodipodi-0.dtd"
   xmlns:inkscape="http://www.inkscape.org/namespaces/inkscape"
   width="351.96286"
   height="63.999809"
   id="svg4902"
   version="1.1"
   inkscape:version="0.48.4 r9939"
   sodipodi:docname="wplex-logo.svg">
  <defs
     id="defs4904" />
  <sodipodi:namedview
     id="base"
     pagecolor="#ffffff"
     bordercolor="#666666"
     borderopacity="1.0"
     inkscape:pageopacity="0.0"
     inkscape:pageshadow="2"
     inkscape:zoom="1.979899"
     inkscape:cx="106.21072"
     inkscape:cy="37.146626"
     inkscape:document-units="px"
     inkscape:current-layer="layer1"
     showgrid="false"
     fit-margin-top="0"
     fit-margin-left="0"
     fit-margin-right="0"
     fit-margin-bottom="0"
     inkscape:window-width="1600"
     inkscape:window-height="876"
     inkscape:window-x="0"
     inkscape:window-y="24"
     inkscape:window-maximized="1"
     inkscape:snap-global="true" />
  <metadata
     id="metadata4907">
    <rdf:RDF>
      <cc:Work
         rdf:about="">
        <dc:format>image/svg+xml</dc:format>
        <dc:type
           rdf:resource="http://purl.org/dc/dcmitype/StillImage" />
        <dc:title></dc:title>
      </cc:Work>
    </rdf:RDF>
  </metadata>
  <g
     inkscape:label="Layer 1"
     inkscape:groupmode="layer"
     id="layer1"
     transform="translate(-343.0708,-661.83257)">
    <g
       id="g4979">
      <path
         d="m 516.34881,661.83322 -6.9465,24.70958 c -0.32934,2.39689 1.27395,3.70137 4.79379,3.97448 l 35.05223,0.0305 -3.00415,11.12822 -39.72233,0 c -12.49214,-0.42572 -17.3743,-5.39944 -14.58381,-14.88904 l 7.03808,-24.92485 17.37269,-0.0289 z"
         style="fill:#2961a1;fill-opacity:1;fill-rule:nonzero;stroke:none"
         id="path154"
         inkscape:connector-curvature="0" />
      <path
         d="m 477.50411,675.50742 c -0.78718,2.15593 -2.72623,3.18409 -5.91192,3.15356 l -7.67104,0.0306 0,0.003 -13.76449,0.0274 1.90692,-6.91599 11.85757,0 2.10291,0 7.50718,0 c 3.39935,0.36629 4.73275,1.60811 3.97287,3.70138 m -0.0916,-13.67453 -11.38848,0 -2.10291,0 -26.62292,0 -11.09931,39.84281 17.28594,-0.0321 3.48611,-12.37005 16.95018,0 2.94953,0 3.93111,0 c 12.07124,-0.48356 19.31977,-5.09421 21.7729,-13.7661 0.30363,-1.09403 0.51408,-2.15271 0.57673,-3.12304 l 0,-1.63863 c -0.45464,-5.57777 -5.70147,-8.5514 -15.73888,-8.91286"
         style="fill:#2961a1;fill-opacity:1;fill-rule:nonzero;stroke:none"
         id="path158"
         inkscape:connector-curvature="0" />
      <path
         d="m 431.96353,661.83322 -11.12983,39.84281 -60.34015,-0.0916 c -13.40142,0.27471 -19.07398,-4.66849 -17.00962,-14.7059 l 7.03486,-25.04534 17.09959,0 -5.97297,21.43875 c -1.45388,3.4845 -0.17993,5.18257 3.7303,5.06369 l 9.00443,0 7.45898,-26.50244 17.00962,0 -7.39632,26.58919 14.61272,0 7.37063,-26.58919 18.52776,0 z"
         style="fill:#2961a1;fill-opacity:1;fill-rule:nonzero;stroke:none"
         id="path162"
         inkscape:connector-curvature="0" />
      <path
         d="m 651.61485,686.15049 -10.25108,5.94084 -1.97278,1.15507 1.97278,1.60489 8.18994,6.82442 20.68047,0 -18.61933,-15.52522 z"
         style="fill:#2961a1;fill-opacity:1;fill-rule:nonzero;stroke:none"
         id="path166"
         inkscape:connector-curvature="0" />
      <path
         d="m 578.62897,671.56636 34.85302,0 17.5719,14.7059 10.31052,-5.94566 1.93905,-1.11973 -1.93905,-1.63863 -18.79766,-15.73567 -4.24598,0 -16.46663,0 -5.87979,0 -19.16554,0 c -12.73312,0.42412 -20.8588,7.067 -24.38025,19.92221 -3.51342,12.79417 0.54942,19.46436 12.16281,19.9206 l 40.84045,0 2.88367,-10.30891 -37.23546,0.0321 c -1.8523,-0.15261 -2.72945,-1.18559 -2.55113,-3.09572 l 0.24419,-2.24428 40.93523,0.12042 2.78889,-9.61008 -41.29509,-0.0289 1.87639,-3.42667 c 0.60887,-1.15507 2.57522,-1.54706 5.55046,-1.54706"
         style="fill:#2961a1;fill-opacity:1;fill-rule:nonzero;stroke:none"
         id="path170"
         inkscape:connector-curvature="0" />
      <path
         d="m 568.68249,716.44169 c 0.36467,-0.0932 0.36467,-0.15101 0.0915,-0.15101 3.51984,-0.90767 7.06218,-1.8796 10.61094,-2.9415 16.77186,-4.9432 33.65778,-11.40133 50.33807,-19.61858 16.64495,-8.24777 33.10837,-18.28358 48.99826,-30.44318 l 1.90852,-1.45388 14.40388,0 c -32.14125,27.61895 -78.38275,45.63424 -126.35124,54.60815"
         style="fill:#52b748;fill-opacity:1;fill-rule:nonzero;stroke:none"
         id="path174"
         inkscape:connector-curvature="0" />
      <path
         d="m 375.25922,711.10602 c 78.62694,16.22083 177.96006,23.6782 284.11599,-49.27297 l 18.25466,0 c -112.82933,86.32368 -253.70173,65.79421 -302.37065,49.27297"
         style="fill:#2961a1;fill-opacity:1;fill-rule:nonzero;stroke:none"
         id="path178"
         inkscape:connector-curvature="0" />
    </g>
  </g>
</svg>
